<?xml version="1.0" standalone="no"?>
<!DOCTYPE svg PUBLIC "-//W3C//DTD SVG 20010904//EN"
 "http://www.w3.org/TR/2001/REC-SVG-20010904/DTD/svg10.dtd">
<svg version="1.0" xmlns="http://www.w3.org/2000/svg"
 width="1280.000000pt" height="808.000000pt" viewBox="0 0 1280.000000 808.000000"
 preserveAspectRatio="xMidYMid meet">
<metadata>
Created by potrace 1.15, written by Peter Selinger 2001-2017
</metadata>
<g transform="translate(0.000000,808.000000) scale(0.100000,-0.100000)"
fill="#000000" stroke="none">
<path d="M3075 8070 c-63 -13 -139 -45 -179 -75 -96 -73 -85 -164 29 -239 49
-33 56 -43 83 -114 57 -146 64 -264 21 -360 -68 -155 -224 -264 -594 -412 -71
-28 -172 -70 -223 -92 -90 -39 -94 -42 -136 -108 -45 -69 -93 -124 -302 -341
-131 -137 -173 -203 -154 -239 17 -32 51 -40 169 -40 96 0 124 -5 247 -39 76
-22 140 -38 141 -37 2 1 -34 17 -80 36 -107 43 -284 133 -321 163 l-28 23 27
55 c61 119 168 254 278 347 144 123 297 207 720 395 l254 114 6 -106 c3 -58
23 -200 43 -316 58 -330 53 -470 -18 -519 -49 -35 -162 -14 -295 53 -34 17
-76 31 -93 31 -66 0 -249 81 -484 214 -54 31 -101 54 -103 52 -2 -2 38 -40 89
-85 104 -90 57 -70 508 -211 322 -101 445 -185 511 -348 l19 -47 -5 40 c-17
125 -55 495 -54 520 2 42 0 54 79 -560 38 -302 81 -638 95 -745 14 -107 39
-303 55 -435 17 -132 33 -251 36 -264 9 -42 -22 -6 -47 54 l-22 54 -21 -62
c-33 -97 -99 -203 -208 -333 -55 -65 -136 -162 -180 -214 -78 -93 -264 -365
-345 -505 -266 -460 -397 -949 -380 -1421 3 -90 3 -164 0 -164 -4 0 -30 19
-60 41 -105 82 -180 202 -208 333 -7 38 -16 70 -18 72 -2 3 -7 -19 -11 -47
-14 -103 -71 -180 -145 -195 -29 -6 -36 -1 -101 66 -126 132 -243 316 -342
540 -48 108 -100 249 -212 570 -36 102 -83 230 -106 285 -117 283 -160 423
-199 655 -67 392 -38 758 66 853 20 17 20 16 26 -95 27 -507 334 -938 1031
-1452 105 -78 114 -83 85 -46 -29 36 -98 99 -453 414 -351 311 -531 566 -580
821 -8 44 -25 103 -37 130 -28 62 -36 185 -20 281 18 101 75 266 128 366 52
98 134 198 164 198 22 0 23 -14 9 -91 -16 -82 -13 -306 5 -417 33 -197 130
-436 251 -618 118 -178 299 -371 475 -505 94 -71 326 -219 343 -219 13 1 15
-1 -230 200 -342 280 -443 376 -550 526 -90 125 -180 341 -218 519 -51 237
-48 548 8 752 11 42 32 83 63 122 7 10 58 -49 98 -114 59 -95 85 -176 135
-405 74 -348 120 -448 273 -603 40 -40 96 -101 125 -135 88 -103 485 -430 572
-471 41 -19 -138 146 -237 220 -121 90 -214 178 -315 301 -243 292 -418 644
-418 838 0 38 5 81 10 96 l11 28 76 -75 c109 -108 176 -195 303 -395 62 -99
129 -201 149 -227 45 -61 157 -155 331 -277 264 -186 343 -291 306 -407 -7
-21 -2 -20 61 13 66 35 71 36 162 32 l93 -3 -8 85 c-12 111 -11 277 0 315 9
29 8 29 -10 14 -33 -29 -82 -49 -116 -49 -28 0 -43 12 -106 80 -41 44 -71 80
-69 80 3 0 43 -18 89 -39 45 -22 99 -42 118 -46 23 -4 11 4 -35 23 -189 76
-384 269 -560 552 -70 113 -175 326 -199 405 -10 31 -20 54 -23 51 -12 -11 21
-146 67 -278 28 -78 50 -145 50 -150 0 -22 -28 4 -162 150 -80 86 -336 351
-569 588 -587 595 -784 807 -1007 1083 -93 115 -98 123 -99 169 -1 63 -15 88
-57 102 -69 22 -221 -51 -326 -159 -138 -141 -110 -232 66 -217 l72 6 553
-566 c305 -310 555 -569 557 -574 2 -5 -35 -60 -81 -122 -269 -359 -438 -705
-508 -1039 -15 -73 -23 -155 -26 -276 -6 -202 10 -323 62 -473 18 -52 106
-308 194 -569 89 -260 182 -526 207 -590 128 -324 266 -573 432 -783 51 -64
66 -76 99 -82 148 -26 317 -105 629 -294 464 -280 606 -334 866 -330 l123 1
-90 7 c-126 8 -188 32 -250 94 -65 65 -86 120 -92 251 -16 317 209 869 580
1425 280 419 583 782 986 1179 l196 193 -90 -60 c-251 -169 -488 -426 -888
-962 -121 -162 -250 -335 -287 -385 -226 -301 -372 -663 -549 -1354 -33 -128
-62 -235 -65 -238 -8 -9 -61 25 -105 68 -157 152 -152 432 16 829 81 192 285
603 356 720 315 517 672 966 1137 1432 130 130 231 234 226 231 -168 -98 -405
-318 -617 -573 -707 -851 -1081 -1480 -1204 -2020 -40 -177 -48 -249 -49 -412
-1 -87 -4 -158 -7 -158 -4 0 -33 20 -66 43 -103 77 -169 170 -211 301 -27 81
-23 351 7 476 44 189 96 335 227 640 85 198 105 235 256 470 247 383 349 521
467 632 73 70 134 108 173 109 13 0 50 -9 82 -21 126 -45 157 -6 190 237 15
108 39 198 57 218 19 19 8 23 -26 9 -60 -25 -95 -11 -79 30 3 8 -2 77 -10 153
-30 260 -35 334 -26 391 11 69 45 106 88 96 40 -10 99 -47 167 -104 33 -27
123 -98 200 -157 413 -315 652 -554 840 -838 117 -177 185 -326 232 -509 26
-99 26 -110 28 -446 2 -251 8 -423 25 -630 29 -366 31 -623 7 -701 -9 -31 -24
-62 -33 -70 -14 -12 -20 -8 -48 26 -17 22 -67 80 -111 129 -124 137 -193 219
-207 244 -32 60 48 73 216 33 88 -21 131 -20 123 2 -2 7 -69 21 -162 34 -193
28 -261 44 -343 84 -72 35 -112 84 -112 137 0 30 -15 50 -126 165 -207 215
-284 333 -292 448 -6 81 3 120 44 180 46 69 23 48 -94 -85 -395 -448 -629
-846 -788 -1342 -43 -136 -48 -160 -52 -269 -4 -109 9 -252 25 -278 14 -23 22
35 22 176 1 173 19 274 82 473 44 137 108 282 134 304 41 34 45 -17 26 -334
-18 -296 -10 -1003 13 -1196 26 -206 72 -420 125 -580 27 -80 56 -171 66 -202
10 -32 24 -63 32 -69 37 -32 85 84 121 296 35 202 44 309 45 549 1 193 -4 268
-26 455 -50 416 -47 567 13 634 35 40 43 33 25 -18 -20 -56 -18 -129 5 -221
22 -84 65 -184 81 -184 15 0 10 44 -16 134 -14 47 -25 95 -25 105 0 39 23 82
52 97 48 25 113 -2 345 -142 226 -137 301 -178 378 -204 50 -17 47 -17 -310
-23 -198 -3 -384 -11 -414 -16 -65 -12 -84 -27 -59 -45 13 -10 38 -8 130 11
365 74 729 40 1002 -92 217 -106 368 -251 499 -480 76 -132 207 -268 396 -411
103 -77 254 -156 290 -152 22 3 26 9 29 40 3 40 -26 106 -88 198 -21 30 -51
89 -69 130 -66 159 -159 281 -455 598 -263 282 -341 386 -393 530 -34 93 -51
326 -58 817 -13 877 -48 1240 -135 1420 -250 516 -781 1032 -1421 1379 l-87
46 -17 73 c-26 112 -32 286 -11 341 30 79 74 97 161 67 30 -11 74 -33 97 -49
24 -16 117 -80 208 -142 298 -203 451 -329 691 -569 406 -407 671 -819 828
-1290 46 -137 50 -158 70 -356 40 -409 45 -494 46 -840 0 -380 -11 -518 -61
-775 -15 -78 -67 -281 -80 -314 -5 -14 -3 -17 12 -15 66 13 147 387 173 809
13 198 -2 846 -24 1025 -30 252 -65 418 -131 615 -40 119 -141 333 -204 430
-54 83 -274 370 -403 525 -126 151 -452 477 -577 577 -244 193 -518 349 -752
427 -37 12 -71 27 -74 32 -3 6 -28 238 -55 517 -27 279 -67 691 -90 917 l-40
410 23 15 c48 31 68 59 68 93 0 54 -36 80 -123 89 -91 9 -171 8 -222 -2z m191
-75 c32 -21 30 -32 -8 -55 -118 -72 -328 -101 -328 -45 0 23 97 113 128 119
51 9 184 -3 208 -19z m4 -223 c0 -10 43 -445 95 -967 106 -1053 135 -1357 165
-1740 18 -230 50 -699 50 -732 0 -17 -82 -17 -126 -1 -31 11 -32 12 -16 36 35
53 26 254 -34 742 -32 266 -184 1466 -224 1770 -32 247 -78 563 -110 764 -10
66 -17 123 -14 127 2 4 44 5 93 2 61 -4 90 -2 95 6 11 17 26 13 26 -7z m-2892
-479 c6 -63 -45 -121 -138 -158 -47 -18 -127 -24 -148 -11 -34 21 13 92 107
160 45 33 84 44 146 42 26 -1 30 -5 33 -33z m199 -275 c290 -341 562 -631
1309 -1393 594 -606 858 -885 1102 -1164 83 -95 94 -118 67 -141 -26 -21 -62
2 -74 48 -29 104 -147 228 -1357 1411 -357 349 -798 783 -981 964 -262 261
-335 328 -349 323 -10 -4 -16 -5 -14 -2 10 9 155 104 161 105 3 1 65 -68 136
-151z m2570 -585 c-3 -10 -5 -2 -5 17 0 19 2 27 5 18 2 -10 2 -26 0 -35z
m-187 -2080 c0 -7 -61 47 -231 203 -144 134 -403 394 -1289 1299 -124 126 168
-159 648 -635 479 -475 872 -865 872 -867z m-599 501 c164 -165 299 -303 299
-307 0 -9 -205 149 -316 244 -124 106 -229 228 -298 346 -42 72 -46 90 -10 48
14 -16 161 -165 325 -331z m2161 -2379 c779 -907 1015 -1196 1337 -1639 119
-163 334 -496 326 -504 -7 -7 -32 12 -108 80 -61 55 -82 83 -116 150 -23 47
-78 129 -127 188 -46 58 -115 143 -152 189 -127 160 -420 497 -952 1096 -293
330 -603 682 -689 782 -88 104 -157 177 -159 168 -2 -8 6 -35 18 -62 11 -26
19 -45 17 -42 -3 2 -26 31 -52 64 l-49 59 30 23 c121 93 118 92 135 74 9 -9
252 -290 541 -626z m-602 325 c46 -58 155 -188 242 -289 303 -351 403 -490
374 -518 -8 -8 -377 214 -472 285 -253 188 -338 380 -282 636 l11 49 21 -29
c11 -16 59 -76 106 -134z m-170 -860 c29 -548 40 -818 40 -1028 0 -216 -15
-503 -31 -587 -13 -65 -34 -115 -49 -115 -32 0 -77 115 -107 274 -10 50 -21
93 -25 94 -4 2 -8 18 -7 35 1 30 1 31 9 7 l7 -25 11 28 c27 65 31 195 31 1111
1 688 5 964 13 980 6 11 25 41 42 66 l31 45 7 -250 c4 -137 17 -423 28 -635z
m492 559 c72 -90 1057 -1250 1412 -1664 66 -77 112 -133 102 -125 -40 32 -515
571 -802 910 -221 262 -858 1036 -888 1080 -24 36 101 -107 176 -201z m-411
-68 c62 -89 227 -210 529 -386 255 -149 345 -209 417 -280 75 -73 93 -121 70
-178 l-16 -37 -178 61 c-658 227 -923 478 -867 822 4 20 9 37 13 37 3 -1 18
-18 32 -39z m-281 -587 c5 -335 12 -728 15 -874 3 -145 4 -262 1 -259 -3 3
-13 66 -22 140 -26 213 -32 1631 -7 1606 2 -3 8 -279 13 -613z m1415 -354 c-4
-6 -44 -9 -93 -8 l-87 2 85 6 c47 3 89 7 93 8 5 1 5 -2 2 -8z"/>
<path d="M3535 7341 c-164 -47 -113 -83 66 -46 l72 15 91 -59 c133 -87 292
-178 530 -303 631 -332 846 -461 1026 -616 164 -142 395 -359 560 -529 96 -98
161 -160 144 -138 -17 22 -45 67 -62 100 -22 45 -69 99 -183 214 -442 445
-885 749 -1354 931 -33 13 -130 71 -215 129 -201 136 -325 219 -375 249 -22
13 -31 21 -21 18 38 -13 225 -36 411 -51 434 -36 594 -71 732 -162 86 -56 149
-144 173 -240 6 -26 7 1 3 88 -3 69 -2 128 3 131 10 5 467 -33 624 -52 151
-18 318 -49 394 -71 149 -44 236 -107 236 -169 0 -26 -4 -30 -29 -30 -109 0
-414 -150 -699 -342 -98 -67 -123 -88 -105 -88 5 0 97 52 204 116 107 65 235
137 285 160 220 106 391 129 539 73 117 -44 217 -178 261 -351 28 -107 68
-198 284 -638 282 -575 348 -735 390 -940 20 -96 26 -203 14 -234 -8 -21 -42
-20 -129 3 -149 39 -280 106 -551 282 -186 121 -200 127 -150 66 90 -110 238
-195 567 -326 294 -117 394 -180 471 -299 16 -26 27 -38 24 -27 -122 431 -227
699 -516 1320 -211 454 -283 612 -312 695 -159 447 -549 761 -1053 846 -49 8
-207 19 -350 24 -328 11 -370 18 -889 135 -349 79 -480 100 -721 120 -237 19
-314 18 -390 -4z"/>
<path d="M5953 6945 c-246 -67 -725 -336 -679 -383 4 -3 19 4 34 16 121 97
200 138 483 251 114 46 224 94 245 107 l39 23 -35 0 c-19 0 -58 -7 -87 -14z"/>
<path d="M3510 6929 c126 -103 306 -194 674 -339 442 -176 540 -235 790 -480
801 -785 1340 -1551 1614 -2295 42 -113 56 -196 96 -555 72 -643 34 -1060
-131 -1422 l-35 -77 -92 -45 c-111 -55 -181 -72 -231 -56 -43 14 -81 59 -96
113 -20 76 -5 308 37 567 35 217 38 252 40 460 2 279 -11 519 -37 667 -104
600 -400 1167 -884 1697 -101 110 -438 432 -627 599 -387 342 -723 542 -1017
605 -51 11 -90 17 -85 13 5 -4 47 -22 94 -41 173 -68 394 -187 595 -317 543
-354 1037 -863 1477 -1522 229 -343 346 -654 404 -1081 22 -163 29 -592 15
-846 -7 -115 -25 -373 -40 -573 l-27 -363 -29 -24 c-41 -34 -167 -71 -331 -99
l-139 -24 205 4 c288 5 361 23 715 180 342 152 414 173 605 181 69 2 355 18
635 34 1217 71 1711 87 2215 72 179 -6 386 -8 460 -5 74 3 275 0 445 -6 309
-11 478 -5 605 20 148 29 289 89 385 164 79 61 152 94 331 150 380 118 485
165 574 254 79 80 97 150 65 259 -12 38 -26 60 -58 86 -60 49 -150 98 -242
134 -202 79 -327 92 -855 92 -302 0 -449 4 -540 15 -262 31 -439 101 -619 243
l-25 20 19 48 c39 103 142 177 291 210 127 28 379 23 714 -15 151 -17 334 -35
405 -40 72 -6 180 -17 240 -25 184 -26 400 -46 477 -45 l73 1 -35 15 c-66 29
-266 73 -445 98 -272 38 -276 40 -98 40 109 0 166 4 173 11 9 9 5 13 -17 18
-70 14 -219 27 -488 41 -242 13 -378 14 -815 5 -289 -5 -565 -14 -615 -20
-294 -36 -492 -113 -616 -242 -55 -58 -126 -186 -116 -211 9 -24 135 -103 218
-137 239 -99 438 -118 1034 -98 580 20 1208 17 1349 -6 341 -55 464 -172 401
-382 -12 -43 -20 -52 -47 -61 -18 -6 -100 -34 -183 -63 -482 -164 -1038 -264
-1990 -355 -148 -14 -382 -37 -520 -51 -764 -78 -1040 -88 -2080 -81 -775 5
-780 5 -706 -13 135 -34 284 -43 605 -36 467 9 786 14 726 10 -260 -17 -404
-28 -581 -44 -477 -44 -714 -47 -839 -10 -69 20 -69 21 15 116 156 179 278
367 409 634 121 244 196 442 350 917 l82 252 -15 88 -16 88 -6 -80 c-5 -66
-28 -146 -136 -470 -159 -477 -199 -586 -273 -740 -52 -107 -118 -205 -139
-205 -4 0 -11 127 -14 283 -15 617 -80 1026 -224 1407 -3 8 12 -2 33 -23 55
-54 128 -101 257 -162 107 -52 313 -125 387 -138 32 -6 33 -5 16 8 -25 19
-146 70 -281 117 -156 55 -244 108 -345 208 -100 99 -159 186 -300 440 -123
224 -218 367 -278 423 -25 23 -58 55 -73 71 -42 41 -35 23 14 -42 163 -213
350 -531 466 -793 118 -269 184 -491 201 -679 6 -68 22 -199 36 -290 49 -324
64 -456 64 -590 0 -260 -53 -435 -180 -595 -19 -25 -53 -70 -74 -100 -74 -105
-260 -271 -323 -290 -21 -6 -23 -3 -23 27 0 18 16 64 35 101 27 52 41 101 59
200 44 242 51 335 51 682 -1 352 -9 452 -61 740 -52 290 -66 332 -178 555
-175 350 -334 620 -530 903 -359 517 -801 990 -1256 1343 -120 94 -148 110
-257 154 -67 26 -283 125 -480 218 -377 179 -474 222 -495 222 -7 0 -2 -10 12
-21z m7083 -3260 c-131 -22 -224 -85 -238 -163 -13 -69 45 -182 128 -250 99
-81 262 -154 350 -157 28 -1 27 -2 -13 -11 -64 -13 -491 -2 -635 17 -307 40
-458 108 -472 212 -8 63 46 150 138 223 51 40 189 90 309 111 79 13 260 26
390 26 86 1 90 0 43 -8z m1956 -1163 c-2 -2 -51 -23 -109 -46 -58 -23 -251
-104 -430 -180 -179 -76 -388 -164 -465 -196 l-140 -58 -490 -4 c-451 -4
-1473 6 -1450 14 6 2 282 28 615 59 869 79 1096 105 1479 170 323 55 703 147
906 219 68 24 93 30 84 22z"/>
<path d="M2570 6865 c0 -3 6 -20 14 -38 21 -53 111 -124 220 -177 91 -44 214
-85 224 -75 12 11 -23 34 -137 87 -137 65 -222 119 -274 173 -32 33 -47 42
-47 30z"/>
<path d="M6626 6459 c-201 -29 -704 -246 -795 -343 -33 -35 -10 -40 35 -7 90
66 244 133 526 231 167 58 298 113 298 124 0 4 -1 5 -2 5 -2 -1 -29 -5 -62
-10z"/>
<path d="M6762 6085 c-135 -46 -428 -204 -574 -309 -62 -45 -74 -61 -30 -45
39 15 261 138 298 165 32 24 134 67 234 99 70 23 129 52 158 78 48 44 20 48
-86 12z"/>
<path d="M2399 5880 c46 -22 122 -66 170 -97 89 -59 234 -196 267 -251 20 -34
42 -45 24 -13 -19 36 -12 90 15 116 20 21 33 25 87 25 35 0 81 -5 103 -10 70
-16 48 -3 -52 30 -54 18 -224 77 -378 131 -347 121 -337 118 -236 69z"/>
<path d="M6985 5744 c-141 -104 -281 -180 -418 -226 -163 -55 -328 -42 -430
36 -68 52 -75 52 -26 0 61 -66 143 -164 209 -249 74 -96 73 -95 49 -39 -21 49
-21 52 -4 87 25 54 109 104 291 177 197 78 267 113 322 157 37 30 79 89 70 98
-2 2 -30 -17 -63 -41z"/>
<path d="M3211 5690 c-1 -30 -6 -72 -10 -94 -7 -28 -3 -84 15 -205 34 -236 39
-321 22 -345 -13 -16 -12 -24 0 -63 13 -39 13 -51 0 -99 -9 -30 -13 -54 -10
-54 3 0 16 10 29 22 l23 21 20 -44 21 -44 -5 170 c-4 99 -13 197 -22 235 -8
36 -26 157 -40 270 -14 113 -28 223 -33 245 l-9 40 -1 -55z"/>
<path d="M2911 5403 c18 -34 41 -72 52 -85 10 -13 4 4 -15 38 -46 84 -76 123
-37 47z"/>
<path d="M6430 5395 c0 -61 93 -156 235 -240 194 -115 569 -255 681 -255 51 0
6 26 -86 50 -275 72 -567 224 -741 388 -42 40 -80 72 -83 72 -3 0 -6 -7 -6
-15z"/>
<path d="M3673 5259 c-56 -45 -82 -84 -67 -99 13 -13 72 19 96 51 21 28 40 89
29 89 -5 0 -31 -18 -58 -41z"/>
<path d="M3000 5259 c0 -22 63 -145 77 -150 37 -15 47 -10 26 14 -12 12 -39
49 -62 81 -23 33 -41 57 -41 55z"/>
<path d="M3160 5060 c46 -38 65 -38 22 0 -18 17 -38 30 -45 30 -6 0 4 -14 23
-30z"/>
<path d="M4008 4941 c-31 -27 -72 -60 -90 -75 -26 -20 -29 -26 -14 -26 10 0
53 34 95 75 42 41 74 75 71 75 -3 0 -31 -22 -62 -49z"/>
<path d="M3820 4811 c-19 -11 -46 -31 -60 -47 l-25 -27 33 19 c33 19 101 73
92 73 -3 0 -21 -8 -40 -18z"/>
<path d="M3161 4759 c-18 -22 -31 -42 -28 -45 2 -3 19 13 37 36 18 23 30 43
28 45 -3 3 -19 -13 -37 -36z"/>
<path d="M3326 4680 c3 -52 9 -113 14 -135 l7 -40 7 47 c8 48 -5 156 -24 200
-7 16 -8 -6 -4 -72z"/>
<path d="M2720 4128 c-25 -28 -51 -61 -59 -72 -20 -30 76 63 100 97 34 46 7
30 -41 -25z"/>
<path d="M4782 4053 c-24 -24 -24 -25 -2 -8 42 33 44 35 37 35 -4 0 -19 -12
-35 -27z"/>
<path d="M2593 3997 c-71 -54 -143 -159 -308 -447 -190 -332 -290 -463 -433
-568 -89 -66 -167 -104 -312 -152 -203 -67 -274 -117 -94 -65 192 56 468 182
543 249 23 20 24 20 17 2 -34 -96 -67 -317 -65 -441 0 -31 6 -17 24 60 12 55
42 156 65 225 74 218 269 650 331 735 32 43 281 435 276 435 -1 0 -21 -15 -44
-33z m-537 -917 c-28 -43 -44 -54 -25 -17 23 42 42 68 47 63 3 -3 -7 -24 -22
-46z"/>
<path d="M4535 3836 c-172 -155 -406 -388 -320 -319 28 22 67 50 89 63 21 13
53 47 73 77 19 30 49 63 66 74 69 42 123 19 293 -122 65 -55 141 -111 168
-124 59 -29 123 -32 169 -8 l32 17 -85 12 c-181 27 -289 93 -341 208 -28 61
-25 160 5 219 13 26 21 47 17 47 -3 0 -78 -65 -166 -144z"/>
<path d="M4360 3531 c0 -58 23 -103 80 -154 61 -55 137 -99 250 -148 99 -43
282 -99 321 -99 41 0 4 17 -144 64 -100 33 -156 57 -207 91 -72 48 -212 178
-269 250 l-31 40 0 -44z"/>
<path d="M1745 3489 c-74 -33 -283 -65 -550 -85 -86 -7 -94 -9 -60 -15 62 -12
280 -12 390 1 166 18 257 47 272 86 10 27 -11 32 -52 13z"/>
<path d="M4095 3229 c29 -55 183 -200 285 -268 229 -153 522 -264 684 -260
l41 1 -35 10 c-392 115 -645 248 -914 483 -71 62 -77 65 -61 34z"/>
<path d="M1933 2400 c0 -41 2 -58 4 -37 2 20 2 54 0 75 -2 20 -4 3 -4 -38z"/>
</g>
</svg>
